<svg xmlns="http://www.w3.org/2000/svg" viewBox="0 0 1856.4178 2086.79075" x="0px" y="0px"><path d="M1816.146 1018.158c-1.868-5.41-5.076-10.236-8.692-14.62-7.221-8.663-15.93-15.93-24.878-22.737-8.454-6.313-16.998-12.627-26.502-17.293-9.89-5.048-20.234-9.107-30.272-13.82-31.095-14.244-63.712-24.81-96.533-34.262-50.284-14.392-101.346-25.878-151.574-40.469-13.353-3.837-27.036-6.42-40.293-10.588-20.45-6.188-38.027-18.707-55.916-29.954-10.14-6.54-20.99-11.922-32.128-16.532-11.696-4.928-23.647-9.243-35.11-14.699 11.645-2.526 23.34-5.626 33.912-11.264-4.94-7.687-8.403-16.163-12.156-24.452-3.775-8.38-8.18-16.715-14.88-23.141.869-2.22 4.264-4.327 2.418-6.887-6.114-6.677-10.372-14.721-14.903-22.482-4.275-7.58-9.566-14.574-15.896-20.552-15.772-15.153-34.9-26.241-54.418-35.83-20.728-10.066-42.245-18.378-63.814-26.429-23.714-8.794-47.928-16.578-70.422-28.29-19.064-9.748-37.34-21.546-58.005-27.734-14.535-4.298-29.795-4.678-44.79-5.916-11.28-.97-22.834-1.879-33.388-6.302-9.731-4.036-17.918-10.985-24.98-18.661-6.99-7.392-13.473-15.3-21.25-21.898-9.085-7.857-18.89-14.8-28.484-22.005-8.89-6.563-17.39-13.632-26.048-20.49-57.506-45.941-114.643-92.37-173.631-136.405-7.557-5.796-15.545-10.991-23.317-16.481-6.955-5.013-14.12-10.055-19.388-16.913-5.332-7.545-8.568-16.288-13.11-24.282-7.54-12.893-15.624-25.458-23.09-38.396-22.561-38.538-42.761-78.598-68.866-114.944-12.876-17.873-27.263-34.769-43.864-49.297-7.21-6.234-14.375-12.558-22.226-17.986-8.948-6.183-18.775-10.9-28.45-15.806-10.531-5.064-21.341-9.85-32.832-12.246-27.99-5.4-57.45-4.57-84.667 4.247-21.772 7.352-42.04 18.457-61.644 30.306-4.798 2.736-9.64 5.575-15.006 7.05-5.405 1.46-10.991.313-16.476.182-2.651-.102-5.285.193-7.92.415-9.157.851-18.252 2.339-27.268 4.139-22.607 4.644-44.749 11.32-66.488 19.019-21.79 7.687-43.346 16.85-62.235 30.351-16.436 11.69-30.618 27.297-38.061 46.254 10.86 2.345 21.852 4.093 32.883 5.427 0 0 47.974 4.35 63.95 5.445 28.33 2.032 56.802 4.196 84.565 10.52 1.152.256 2.35.494 3.378 1.13 5.427 3.049 9.907 7.517 13.665 12.428 6.206 8.215 10.657 17.605 14.165 27.245 4.173 11.616 6.983 23.715 8.437 35.972 3.436 28.192-4.036 56.685 1.13 84.768l.521-.03c.415-6.185 1.118-12.684 4.265-18.148.147 3.032-1.278 5.967-.835 8.993.097 1.363 2.203 2.237 3.174 1.295 1.408-6.881 2.538-13.995 5.853-20.28 1.959 35.546-2.464 71.098-8.76 106.025.636-.676 1.573-2.566 2.68-1.573.391 1.198-.103 2.487-.17 3.725-2.675 20.609-9.079 41.019-7.262 61.997 2.464-4.043 1.885-9.652 5.558-13.087 1.045 4.673 1.147 9.482 1.664 14.228.528 4.173 1.135 8.794 4.195 11.962.965-2.504 1.045-5.694 3.418-7.38.176 4.002-.585 7.948-1.033 11.91-.398 3.606-.807 7.455.857 10.827 1.317-1.243 1.425-3.292 2.606-4.638 1.499.182 1.107 3.185 2.51 3.253 2.02-2.617 1.51-6.955 4.797-8.573.062 7.807-.534 15.681.533 23.454.295 1.919.909 5.177 3.6 4.4 2.27 13.949 8.476 27.314 7.784 41.689-.216 5.57-2.47 10.815-2.754 16.367-1.556 24.663 3.815 49.467 13.864 71.95 7.403 16.97 18.656 31.94 31.067 45.561 5.819 6.273 11.525 12.729 18.298 18.02 10.049 8.187 21.506 15.17 28.966 26.048 5.717 8.147 10.248 17.049 15.562 25.451 6.733 10.515 13.682 20.899 21.267 30.823 7.755 10.015 15.732 19.86 23.561 29.817 13.32 17.033 26.798 34.15 36.92 53.345 11.662 21.801 20.785 44.812 30.982 67.294 14.324 31.044 28.267 62.446 37.397 95.471 14.278 51.704 25.673 104.23 33.19 157.354 1.635 12.751 4.297 25.338 6.37 38.021 1.207 7.871 2.306 15.894 2.454 23.895.117 6.292-2.191 12.393-6.527 16.954-21.942 23.082-44.356 45.745-68.039 67.027-5.922 5.685-13.57 8.799-20.237 13.435-6.328 4.636-6.734 14.043-13.028 18.578-15.262 4.264-31.303 3.181-46.97 4.298-9.747 0-20.035 1.624-29.273-2.2-13.029-4.839-24.162-14.754-38.307-16.31-16.853-.069-31.202 13.705-33.13 30.219 9.204-10.254 21.59-20.338 36.412-16.954 5.414.067 12.656 6.023 7.614 11.303-9.577 11.54-16.21 25.752-15.126 41.15 8.087-8.156 13.772-18.24 21.86-26.328 2.133 4.84 3.418 10.389 7.649 14.01 10.152 1.489 20.406-5.956 30.22-.914 7.647 2.876 15.837-.135 23.586-.846 0 0 .906-.12 2.29-.284 6.766-.798 13.585 1.202 18.808 5.577 1.644 1.377 3.34 2.684 5.196 3.776 10.66.745 21.489.102 32.013-1.726 9.239-1.929 15.195-12.52 25.28-11.167 25.549 2.775 51.505 7.445 77.156 3.452 8.043-5.323 11.065-14.258 11.032-23.399-.01-2.84 1.778-5.375 4.494-6.2 6.436-1.96 12.968-3.056 19.803 1.105 10.944 6.661 6.972 22.268 18.816 25.854.473-9.78-1-15.847-3.979-25.289-5.279-9.915-15.209-18.906-25.97-19.786-17.191-2.47-31.878 8.595-48.054 12.284-10.964 2.944-25.752 9.238-34.653-1.218-3.519-9.239 1.388-18.51 7.58-25.245 22.258-27.025 48.594-53.325 74.245-77.45a54.984 54.984 0 0 0 6.433-7.214c6.415-8.615 12.454-17.479 17.191-27.167 4.15-8.329 6.842-17.339 8.062-26.559 4.241-29.347-.953-58.84-2.197-88.204 5.956 4.287 7.54 12.496 14.018 16.238-.262-1.306-.517-2.595-.438-3.895 1.369.857 2.158 2.328 3.02 3.667 1.653 2.646 3.016 5.457 4.4 8.261.824-.409 2.022-.693 2.022-1.834-.352-2.01-1.726-3.73-1.618-5.819 1.505 1.658 2.367 3.821 4.002 5.4.722.92 1.795 1.226 2.924.817.358-2.76-3.094-4.485-2.276-7.38 2.645 2.509 3.508 6.733 7.193 8.146.113-2.56-.625-5.16-2.663-6.807.307-.199.926-.596 1.238-.79 1.522 1.636 2.27 4.31 4.706 4.866-2.26-8.34-5.11-16.55-8.992-24.276-.625-1.277-2.005-2.805-.517-3.997 1.17 1.442 2.038 4.218 4.445 3.293.454-2.975-1.6-5.428-3.162-7.704.993-.426 1.97.284 2.72.914 2.844 2.68 4.62 6.381 7.823 8.715.965.965 2.396-.387 2.186-1.5-.074-2.321-1.346-4.342-2.43-6.301.914-.256 1.703-.046 2.367.642 2.061 1.873 3.145 4.519 4.922 6.636 1.51-1.022 1.369-2.935 1.573-4.52 7.721 9.817 16.277 18.952 23.828 28.91 1.016-.897 1.856-2.072 3.14-2.611 1.344-.464 2.245 1.01 3.234 1.628l.986-.552c-.116-2.446-2.43-4.99-.496-7.253 1.362 1.192 2.39 2.861 4.144 3.565.046-2.55.04-5.229-1.044-7.58-.415-1.06-2.038-2.236-.613-3.207 1.828 1.022 3.185 2.77 5.217 3.475.716-3.128-1.731-5.4-4.195-6.734 1.26-2.01 3.122.085 4.587.687-2.027-10.049-7.278-19.098-13.387-27.2 1.345-1.516 3.378-.193 5.08-.346-.533-.8-1.1-1.55-1.396-2.43.812.21 1.726.363 2.379 1.005 3.753 3.287 5.61 8.453 10.129 10.917-.614-6.21-4.798-11.06-8.074-16.067.37-.386.755-.755 1.159-1.107 1.59 1.59 2.31 4.275 4.723 4.883-.182-2.657-.431-5.315-.199-7.966 1.618 1.357 2.305 3.43 3.44 5.167.802-.886 1.602-1.772 2.414-2.64.182.329.55.982.732 1.311.681-.658 1.579-1.328 1.425-2.396-.488-2.912-2.663-5.399-2.294-8.476 3.157 1.436 3.884 5.507 7.188 6.75-1.567-13.523-8.641-25.588-10.917-38.94 2.6-1.681 5.876-1.681 8.686-.5 4.973 1.879 9.203 5.206 13.847 7.738 5.79 3.36 11.656 6.71 16.76 11.1 3.219 2.878 6.375 6.108 7.857 10.27 1.635 4.468.778 9.362-.482 13.818-1.533 5.405-3.68 10.742-3.912 16.42-.199 3.667 3.094 6.5 2.856 10.19-.052 1.624-1.266 2.822-2.356 3.883 1.76-.068 4.116.705 3.94 2.901-.733 5.956-4.656 11.486-3.577 17.646 1.084.817 2.015-.517 2.776-1.147-1.028 5.78-1.01 11.69-.647 17.532.982 14.182 4.02 28.097 6.08 42.137 1.965 13.387 4.171 28.087.553 41.309-5.764 21.067-9.64 41.959-14.279 63.224-3.202 14.677-7.223 29.162-11.585 43.533-3.535 11.646-7.298 23.22-11.048 34.799-7.244 17.112-11.268 37.793-27.61 48.886-15.713 11.234-31.915 21.767-47.907 32.58-6.3 4.704-13.666 6.57-21.227 7.867-11.18 1.918-20.772 9.172-25.33 19.56-3.538 8.067-6.312 16.435-7.299 25.274 7.427-10.845 10.883-11.373 15.433-17.777 3.044-6.369 9.903-9.203 16.097-11.583 5.914 2.414 7.139 12.353 14.872 11.023 15.363.735 23.061-15.152 35.274-21.696-5.424 13.087-13.053 25.09-20.016 37.374-1.996 3.456-4.355 6.689-6.823 9.85-11.574 14.828-17.696 33.18-17.618 51.989.033 7.984.316 15.976.54 23.93l3.814-12.332c4.83-18.722 4.794-29.555 19.002-44.532 7.699 2.309 16.657 6.753 23.936.77 12.808-6.195 8.993-24.426 21.591-30.9 13.893-8.259 17.847-24.741 27.68-36.394 16.937 5.774 31.425 21.241 50.811 16.867 2.065-5.18 4.13-10.358 6.09-15.572 15.257-2.695 34.608.84 40.837 16.972 5.39 9.413 5.005 24.076 16.728 28.275.175-25.405-9.554-56.48-36.01-65.23-11.967-5.633-24.04 3.15-36.113 2.45-8.783-7.313-20.506-15.151-18.687-28.31.595-24.46-3.71-49.866 4.69-73.416 3.984-13.988 9.842-27.353 15.643-40.659 2.803-6.429 5.615-12.855 8.249-19.356 2.526-6.234 4.592-12.64 6.465-19.101a216.466 216.466 0 0 1 7.72-22.092c2.431-5.906 7.093-10.924 10.813-16.144 8.205-11.511 16.144-23.283 22.394-35.993 5.082-9.952 8.727-20.58 11.412-31.407 1.516.698 2.367 2.146 3.202 3.531.795 1.334 2.447 1.743 3.923 1.664-.505-26.639-5.456-52.89-8.067-79.347 1.43 1.527 2.89 3.406 5.07 3.826 2.146-.363 2.123-3.14 2.503-4.808 1.777 1.703 3.594 3.565 5.984 4.4 1.101.408 2.373.05 2.97-1.005-3.697-2.039-7.063-5.03-9.084-8.755 1.828.085 3.236 1.499 4.695 2.492 1.033-.102 2.06-.346 3.066-.67.153-.772-.006-1.51-.659-1.947-1.749-1.6-4.212-2.685-4.9-5.144 3.214-.391 4.997 3.117 7.92 3.657 1.204.295 2.118-.676 2.794-1.533-4.582-7.386-13.592-9.794-19.809-15.403-1.68-1.504-3.258-3.548-3.003-5.927 2.742-.346 4.769 1.964 7.364 2.305 1.533-.051 1.612-1.93 1.754-3.072-1.21-.488-3.213-1.635-2.39-3.145.93-.352 1.913 0 2.878.097.642-.965 1.17-2.334.137-3.225-2.39-2.56-7.25-3.696-7.222-7.852 4.087-2.617 8.749-4.331 13.58-4.916 6.467-.721 12.979.29 19.235 1.947 9.896 2.379 18.866 7.375 27.967 11.78 6 3.135 12.257 5.757 18.179 9.067 5.995 3.322 11.905 6.842 18.167 9.669 3.872 1.646 8.034 3.361 12.337 2.714 3.594-.625 6.104-3.571 8.102-6.393 2.742-4.048 5.217-8.323 8.624-11.871 7.17-7.864 16.81-13.166 26.996-16.028 13.7-3.854 28.137-3.962 42.222-2.708 25.838 2.453 50.898 9.555 75.844 16.385 14.353 3.974 29.052 6.478 43.637 9.43 11.73 2.368 23.22 5.763 34.689 9.158 23.918 7.108 48.059 15.017 73.22 15.737 13.28.336 26.713-1.81 38.942-7.125 14.114 6.66 29.596 9.669 43.869 15.942 10.083 4.332 17.992 12.349 27.927 16.959a37.039 37.039 0 0 0 16.243 3.64c1.573-.114 2.645-1.687 2.787-3.158.301-1.447-.238-3.19.937-4.326 13.211 6.898 26.48 13.694 39.543 20.87 11.275 6.387 21.915 13.95 33.78 19.28 4.929-.947 5.9-6.505 8.318-10.065 13.875 7.392 25.253 18.633 39.14 26.02 9.998 5.427 21.699 8.186 33.03 6.267 1.84-4.372 2.578-9.254 5.383-13.177 3.997 3.792 8.692 6.767 13.512 9.401 8.71 4.656 18.196 8.454 28.171 8.897 5.07.125 10.702-1.289 13.813-5.615 3.532-5.138 3.418-11.74 2.657-17.668 9.686 5.66 19.315 11.417 28.995 17.089 6.597-3.39 14.318-4.496 21.58-2.867 7.278 1.51 14.045 4.7 21.017 7.193 6.382 2.345 13.024 4.122 19.831 4.57 1.34.262 1.88-1.294 2.3-2.265 1.124-4.27-.051-8.777 1.084-13.04.295-.994.71-2.13 1.732-2.573 4.632.449 9.02 2.118 13.489 3.339 4.877 1.374 10.265 2.157 15.102.181-.908-2.725-2.06-5.36-3.577-7.778-4.502-7.34-11.633-12.58-19.03-16.725-9.345-5.218-19.372-9.067-28.688-14.324-31.919-16.976-64.62-32.475-95.942-50.569-8.829-5.047-17.379-10.577-26.497-15.096-11.405-5.938-23.135-11.326-33.95-18.32-4.23-2.72-8.198-5.809-12.212-8.818-63.099-47.32-126.668-94.068-191.964-138.323 52.55 8.612 104.799 19.081 156.622 31.316 47.866 11.377 95.42 24.129 142.394 38.782 24.254 7.642 48.695 15.562 74.13 18.088 1.845.472 3.6-1.17 4.093-2.85.68-2.753-.326-5.45-.72-8.158l.797-.776c13.38 1.968 25.904 7.249 38.54 11.807 10.85 3.974 22.216 7.04 33.855 6.955 1.759-5.69 1.447-11.952-.512-17.544z"/><text x="0" y="1684.4326" fill="#000000" font-size="5px" font-weight="bold" font-family="'Helvetica Neue', Helvetica, Arial-Unicode, Arial, Sans-serif">Created by Bluetip Design</text><text x="0" y="1689.4326" fill="#000000" font-size="5px" font-weight="bold" font-family="'Helvetica Neue', Helvetica, Arial-Unicode, Arial, Sans-serif">from the Noun Project</text></svg>